<svg
   width="100%"
   height="100%">
  <defs
     id="defs3021" />
  <sodipodi:namedview
     pagecolor="#ffffff"
     bordercolor="#666666"
     borderopacity="1"
     objecttolerance="10"
     gridtolerance="10"
     guidetolerance="10"
     inkscape:pageopacity="0"
     inkscape:pageshadow="2"
     inkscape:window-width="640"
     inkscape:window-height="480"
     id="namedview3019"
     showgrid="false"
     inkscape:zoom="0.13169643"
     inkscape:cx="896"
     inkscape:cy="896"
     inkscape:window-x="0"
     inkscape:window-y="25"
     inkscape:window-maximized="0"
     inkscape:current-layer="svg3013" />
  <g
     transform="matrix(1,0,0,-1,68.338983,1285.4237)"
     id="g3015">
    <path
       d="M 1408,544 V 64 Q 1408,38 1389,19 1370,0 1344,0 H 960 V 384 H 704 V 0 H 320 q -26,0 -45,19 -19,19 -19,45 v 480 q 0,1 0.5,3 0.5,2 0.5,3 l 575,474 575,-474 q 1,-2 1,-6 z m 223,69 -62,-74 q -8,-9 -21,-11 h -3 q -13,0 -21,7 L 832,1112 140,535 q -12,-8 -24,-7 -13,2 -21,11 l -62,74 q -8,10 -7,23.5 1,13.5 11,21.5 l 719,599 q 32,26 76,26 44,0 76,-26 l 244,-204 v 195 q 0,14 9,23 9,9 23,9 h 192 q 14,0 23,-9 9,-9 9,-23 V 840 l 219,-182 q 10,-8 11,-21.5 1,-13.5 -7,-23.5 z"
       id="path3017"
       inkscape:connector-curvature="0"
       style="fill:currentColor" />
  </g>
</svg>
