<svg fill="#fff" xmlns="http://www.w3.org/2000/svg" viewBox="0 0 511 512"><path d="M40.176 425.22c6.3.012 12.63-2.133 17.547-6.53L62.3 414.7l35.496 35.492-4 4.574c-9.3 10.395-8.88 26.242.96 36.082l13.574 13.574c10.488 10.492 28.145 10.023 38.043-.996 39.434-43.89 53.285-81.69 56.445-114.762 16.625 2.066 33.434 2.395 49.973-.566 30.598-5.484 58.9-21.586 86.56-49.234s43.754-55.965 49.234-86.562c3.297-18.414 2.395-35.363.55-50.105 15.566-1.504 32.215-5.34 49.938-13.047 3.797-1.652 5.54-6.074 3.887-9.87a7.51 7.51 0 0 0-9.875-3.891c-21.363 9.297-40.89 12.45-58.988 12.617-15.36.14-30.602-1.984-45.715-4.508-34.328-5.742-64.97-9.06-94.832 12.48-14.133 10.195-27.06 23.19-37.254 37.32-22.926 31.766-18.652 57.07-13.1 89.977 3.04 17.96 5.918 36.11 5.2 54.395 0 .063-.004.13-.004.195-1.672 44.422-24.078 83.133-53.187 115.535-4.117 4.578-11.684 5-16.273.4l-13.574-13.574c-4.207-4.207-4.38-11-.387-15.465 22.875-25.56 40.285-56.238 41.746-91.207 0-.066.008-.13.012-.195.563-37.363-14.305-73.47-7.574-111.027 4.922-27.477 19.664-53.188 45.074-78.594s51.113-40.152 78.594-45.074c37.668-6.746 73.582 8.13 111.027 7.574.066 0 .13-.008.195-.012 35.543-1.46 65.22-18.484 91.207-41.742 4.46-3.996 11.254-3.824 15.465.383L494.3 118.45c4.496 4.496 4.305 12.035-.4 16.273-11.906 10.69-23.887 19.863-35.617 27.254a7.5 7.5 0 0 0-2.348 10.348c2.207 3.504 6.84 4.56 10.348 2.348 12.445-7.84 25.113-17.527 37.645-28.79 11.027-9.902 11.473-27.57.996-38.043L491.34 94.266c-9.84-9.84-25.69-10.262-36.086-.957l-4.57 3.996-35.492-35.492 3.988-4.582c9.3-10.395 8.88-26.242-.957-36.082L404.645 7.574c-10.477-10.477-28.137-10.03-38.043.996-34.46 38.36-52.52 75.043-56.355 114.766-15.664-1.957-32.078-2.656-50.062.566-30.598 5.48-58.9 21.586-86.56 49.234s-43.754 55.96-49.234 86.56c-3.223 17.984-2.52 34.398-.562 50.063-18.375 1.78-35.953 6.613-53.504 14.695-3.762 1.73-5.4 6.188-3.676 9.953s6.19 5.4 9.953 3.676c16.223-7.47 32.45-11.895 49.402-13.457.617 3.777 6.742 41.39 5.625 41.484-28.527 2.29-54.723 15.277-83.914 41.398-4.46 3.992-11.254 3.824-15.465-.387l-13.574-13.574c-4.445-4.445-4.25-12.078.414-16.27 10.902-9.797 21.895-18.328 32.672-25.363 3.473-2.266 4.45-6.914 2.184-10.387s-6.914-4.445-10.383-2.18c-11.422 7.453-23.027 16.457-34.5 26.766-11.016 9.895-11.46 27.582-.996 38.043l13.574 13.578c4.934 4.93 11.72 7.47 18.535 7.484zm166.44-180.477a109.21 109.21 0 0 1 4.426-6.102l62.79 62.79c-6.398 4.965-12.285 8.54-17.77 11.094l-.613.28-55.738-55.738c1.797-4.016 4.066-8.102 6.906-12.324zm24.547-27.488l64.07 64.07c-2.023 2.238-4.2 4.527-6.547 6.875l-3.48 3.383-64.31-64.31c-.3-.355 10.32-9.965 10.266-10.02zm15.695-12.2c5.28-3.395 10.36-5.914 15.363-7.723l52.938 52.94c-2.5 6.914-6.164 13.352-10.426 19.328l-61.848-61.848c.137-.098 2.77-1.926 3.973-2.7zm-7.664 112.715c-4.187.68-8.156.89-11.984.89-9.32 0-19.105-1.44-30.113-3.273-2.625-15.777-4.426-29-2.3-42.016zm134.62-68.113c-4.922 27.477-19.668 53.188-45.074 78.594s-51.117 40.152-78.594 45.074c-7.437 1.332-14.93 1.98-22.906 1.98-7.242 0-14.734-.523-23.664-1.668.098-15.2-1.742-29.355-3.87-42.62 9.504 1.504 18.64 2.652 27.504 2.652 34.656 0 64.742-23.785 85.438-49.656l.332-.418c.035-.043.07-.086.102-.13 24.188-30.54 23.117-54.703 18.426-84.25l10.965 1.613c10.488 1.395 21.063 2.29 31.648 2.195 1.777 13.82 2.727 29.695-.305 46.633zM315.88 196.61c2.234 13.426 3.875 25 3.008 36.168L279.72 193.61c11.168-.867 22.738.766 36.16 3zm65.785-65.762c.66-7.19 2.246-15.348 5.754-24.605l18.902 18.898c-8.555 3.223-16.684 4.97-24.656 5.707zm57.215-24.12c-6.168 4.566-12.152 8.426-18.1 11.664l-26.656-26.656c3.098-5.676 6.926-11.703 11.648-18.105zm-61.113-88.13c4.254-4.734 11.79-4.89 16.27-.4l13.574 13.574c4.21 4.207 4.38 11 .387 15.465-26.12 29.188-39.113 55.387-41.398 83.9-.066.637-41.562-4.77-41.484-5.625 3.387-36.684 20.242-70.84 52.652-106.914zM92.227 393.645l26.652 26.652c-3.234 5.938-7.094 11.926-11.664 18.094l-33.098-33.098c6.402-4.723 12.43-8.55 18.11-11.648zm14.508-6.715c9.258-3.512 17.4-5.094 24.605-5.754-.738 7.97-2.484 16.102-5.707 24.652zm0 0"/></svg>
