<svg fill="#fff" xmlns="http://www.w3.org/2000/svg" viewBox="-46 0 512 512" ><path d="M410 0H10A10 10 0 0 0 0 10v492a10 10 0 0 0 10 10h400a10 10 0 0 0 10-10V10a10 10 0 0 0-10-10zm-10 20v43.125L361.23 20zM20 20h20v472H20zm40 0h274.336L400 93.043V427.46L326.242 492H60zm340 472h-43.387L400 454.04zm-210.246-60h-60c-5.512 0-10 4.488-10 10s4.488 10 10 10h60a10.02 10.02 0 0 0 10-10 10.02 10.02 0 0 0-10-10zm0 0"/><path d="M339.754 442a10.02 10.02 0 0 0-10-10h-60c-5.512 0-10 4.488-10 10s4.488 10 10 10h60a10.02 10.02 0 0 0 10-10zm-110-10c-5.512 0-10 4.488-10 10s4.488 10 10 10a10.02 10.02 0 0 0 10-10 10.02 10.02 0 0 0-10-10zm-100-20h200c5.52 0 10-4.477 10-10s-4.48-10-10-10h-200a10 10 0 1 0 0 20zM183.2 186.703c3.55 1.973 8.14 2.844 11.242 2.844 4.973 0 7.93-1.547 8.87-4.64l6.668-23.82h38.352l6.805 23.8c.832 3.102 3.457 4.652 7.875 4.652 5.234 0 14.676-3.148 14.676-9.664 0-.238-.117-.836-.355-1.793L242.797 65.5c-1.863-6.066-9.473-7.875-15.035-7.875-5.148 0-13.035 1.348-14.86 7.094L178.32 177.3c-.238 1.02-.355 1.66-.355 1.914-.008 3.375 2.25 5.824 5.246 7.488zm47.273-98.828l15.574 54.953h-30.953zm0 0"/><path d="M186.363 348.102c0 4.297 2.328 6.445 6.98 6.445h74.285c5.035 0 7.34-5.984 7.34-10.203s-2.312-10.203-7.34-10.203h-51.55l52.98-95.766c1.793-2.98 2.688-5.785 2.688-8.4 0-4.18-2.328-6.266-6.98-6.266h-68.02c-5.14 0-7.16 5.918-7.16 10.2 0 4.39 1.898 10.203 7.16 10.203h45.285l-53.164 95.945c-1.672 2.746-2.504 5.434-2.504 8.055zm0 0"/></svg>
