<svg fill="#fff" xmlns="http://www.w3.org/2000/svg" viewBox="0 0 480.1 480.1"><path d="M240.135.05C144.085.036 57.277 57.29 19.472 145.586l-2.992.992 1.16 3.48c-49.776 122.766 9.393 262.64 132.16 312.415a239.87 239.87 0 0 0 90.265 17.577c132.548.02 240.016-107.416 240.036-239.964S372.684.07 240.135.05zm188.253 361.004l-12.324-12.316V320.05a7.99 7.99 0 0 0-.8-3.576l-31.2-62.312V224.05a8 8 0 0 0-3.56-6.656l-24-16c-1.88-1.256-4.206-1.657-6.4-1.104l-29.392 7.344-49.368-21.184-6.792-47.584 18.824-18.816h40.408l13.6 20.44a8 8 0 0 0 5.344 3.448l48 8c1.286.216 2.604.11 3.84-.304l44.208-14.736c37.08 71.155 33.113 156.736-10.388 224.156zM395.392 78.882l-13.008 8.672-36.264-7.256-23.528-7.832c-1.44-.49-3-.55-4.464-.176l-29.744 7.432-13.04-4.344 9.664-19.328h27.056c1.24.001 2.465-.286 3.576-.84l27.68-13.84c19.062 9.95 36.598 22.582 52.072 37.512zM152.44 33.914l19.2 12.8a7.99 7.99 0 0 0 3.128 1.232l38.768 6.464-3.784 11.32-20.2 6.744a8 8 0 0 0-4.328 3.464l-22.976 38.288-36.904 22.144-54.4 7.768a8 8 0 0 0-6.88 7.912v24a8 8 0 0 0 2.344 5.656l13.656 13.656v13.744l-33.28-22.192-12.072-36.216A225.29 225.29 0 0 1 152.44 33.914zM129.664 296.2l-36.16-7.24-13.44-26.808v-18.8l29.808-29.808 11.032 22.072a8 8 0 0 0 7.16 4.424h51.472l21.672 36.12a8 8 0 0 0 6.856 3.88h22.24l-5.6 28.056-30.288 30.288c-1.503 1.5-2.35 3.533-2.352 5.656v20l-28.8 21.6a8 8 0 0 0-3.2 6.4v28.896l-9.952-3.296-14.048-35.136V304.05a8 8 0 0 0-6.4-7.84zm-24.048 122.98c-75.43-56.59-107.328-154.365-79.784-244.55l6.648 19.936c.56 1.687 1.666 3.14 3.144 4.128l39.88 26.584-9.096 9.104a8 8 0 0 0-2.344 5.656v24c-.001 1.24.286 2.465.84 3.576l16 32c1.108 2.2 3.175 3.784 5.6 4.264l33.6 6.712v73.448c-.001 1.016.192 2.024.568 2.968l16 40a8 8 0 0 0 4.904 4.616l24 8a7.86 7.86 0 0 0 2.488.416 8 8 0 0 0 8-8v-36l28.8-21.6a8 8 0 0 0 3.2-6.4v-20.688l29.656-29.656c1.115-1.117 1.875-2.54 2.184-4.088l8-40a8 8 0 0 0-6.277-9.413c-.515-.103-1.038-.155-1.563-.155h-27.472l-21.672-36.12a8 8 0 0 0-6.856-3.88h-51.056l-13.744-27.576a8 8 0 0 0-5.88-4.32 7.84 7.84 0 0 0-6.936 2.24l-10.384 10.344V192.05a8 8 0 0 0-2.344-5.656l-13.656-13.656v-13.752l49.136-7.016c1.055-.153 2.07-.515 2.984-1.064l40-24c1.122-.674 2.062-1.614 2.736-2.736l22.48-37.464 21.192-7.072a7.92 7.92 0 0 0 5.056-5.056l8-24a8 8 0 0 0-5.086-10.106 8.06 8.06 0 0 0-1.186-.294l-46.304-7.72-8.136-5.424c50.343-16.386 104.87-14.358 153.856 5.72l-14.616 7.296h-30.112a8 8 0 0 0-7.2 4.424l-16 32a8 8 0 0 0 3.59 10.729 8.02 8.02 0 0 0 1.042.431l24 8c1.44.49 3 .55 4.464.176l29.744-7.432 21.792 7.256a5.88 5.88 0 0 0 .96.256l40 8c2.08.424 4.244-.002 6.008-1.184l18.208-12.144a225.69 225.69 0 0 1 24.064 32.152l-39.36 13.12-42.616-7.104-14.08-21.12a8 8 0 0 0-6.616-3.56h-48a8 8 0 0 0-5.656 2.344l-24 24a8 8 0 0 0-2.264 6.792l8 56a8 8 0 0 0 4.8 6.216l56 24c1.604.695 3.394.838 5.088.408l28.568-7.144 17.464 11.664v27.72a7.99 7.99 0 0 0 .8 3.576l31.2 62.312v30.112a8 8 0 0 0 2.344 5.656l16.736 16.744c-74.223 98.933-214.595 118.965-313.528 44.74z"/></svg>
