<svg xmlns="http://www.w3.org/2000/svg" width="402" height="560" viewBox="0 0 401.98 559.472"><style><![CDATA[.B{stroke-width:3}.C{stroke-linecap:round}.D{stroke:#000}.E{fill:#f6d2a2}.F{fill-rule:evenodd}]]></style><g class="B D F"><g class="C"><path d="M10.634 300.493c.764 15.75 16.5 8.463 23.626 3.54 6.765-4.675 8.743-.79 9.337-10.015.39-6.064 1.088-12.128.744-18.216-10.23-.927-21.357 1.51-29.744 7.602-4.32 3.14-12.42 13.158-3.963 17.1" class="E"/><path fill="#c6b198" d="M10.634 300.493c2.3-.852 4.717-1.457 6.27-3.528"/></g><path d="M46.997 112.853C-13.3 95.897 31.536 19.2 79.956 50.74l-32.96 62.113zm267.898-67.87c47.727-33.523 90.856 42.1 35.388 61.14l-35.388-61.14z" fill="#6ad7e5"/><path d="M325.16 494.343c12.123 7.5 34.282 30.182 16.096 41.18-17.474 16-27.254-17.56-42.59-22.21 6.605-8.97 14.977-17.15 26.495-18.97z" class="E"/></g><path fill="none" d="M341.257 535.522c-2.696-5.36-3.6-11.618-8.102-15.94" class="B C D"/><path d="M108.58 519.975c-14.23 2.202-22.238 15.04-34.1 21.558-11.178 6.665-15.454-2.134-16.46-3.92-1.752-.8-1.605.744-4.31-1.98-10.362-16.354 10.797-28.308 21.815-36.432 15.346-3.102 24.963 10.202 33.055 20.773z" class="B D E F"/><path fill="none" d="M58.02 537.612c.542-6.233 5.484-10.407 7.838-15.677" class="B C D"/><g class="F"><path d="M49.513 91.667c-7.955-4.208-13.8-9.923-8.925-19.124 4.505-8.518 12.874-7.593 20.83-3.385l-11.905 22.5zm288.203-8c7.955-4.208 13.8-9.923 8.925-19.124-4.505-8.518-12.874-7.593-20.83-3.385l11.905 22.5z"/><g class="D"><g class="B C"><path d="M392.475 298.493c-.764 15.75-16.5 8.463-23.626 3.54-6.765-4.675-8.743-.79-9.337-10.015-.39-6.064-1.088-12.128-.744-18.216 10.23-.927 21.357 1.51 29.744 7.602 4.32 3.14 12.42 13.158 3.963 17.1" class="E"/><path fill="#c6b198" d="M392.475 298.493c-2.3-.852-4.717-1.457-6.27-3.528"/><path fill="#6ad7e5" d="M195.512 13.124c60.365 0 116.953 8.633 146.452 66.63 26.478 65.006 17.062 135.104 21.1 203.806 3.468 58.992 11.157 127.145-16.2 181.812-28.8 57.514-100.73 71.982-160 69.863-46.555-1.666-102.794-16.854-129.07-59.39-30.826-49.9-16.232-124.098-13.993-179.622 2.652-65.77-17.815-131.742 3.792-196.1C70 33.36 130.45 18.27 195.512 13.124"/></g><g fill="#fff"><path stroke-width="2.908" d="M206.17 94.16c10.838 63.003 113.822 46.345 99.03-17.197-13.264-56.98-102.632-41.208-99.03 17.197" class="C"/><path stroke-width="2.821" d="M83.103 104.35c14.047 54.85 101.864 40.807 98.554-14.213-3.966-65.895-111.984-53.18-98.554 14.213" class="C"/><path d="M218.594 169.762c.046 8.2 1.86 17.387.312 26.1-2.1 3.952-6.193 4.37-9.73 5.967-4.9-.767-9.002-3.978-10.963-8.552-1.255-9.946.468-19.576.785-29.526l19.595 6zm-42.377-.892c-6.47 15.68 3.608 47.035 21.163 23.908-1.255-9.946.468-19.576.785-29.526l-21.948 5.618z" class="B"/></g></g><path stroke="#231f20" d="M178.43 138.673c-12.06 1.028-21.916 15.366-15.646 26.71 8.303 15.024 26.836-1.33 38.38.203 13.285.272 24.17 14.047 34.84 2.5 11.867-12.854-5.11-25.373-18.377-30.97l-39.196 1.568z" class="B E"/><path d="M176.913 138.045c-.893-20.89 38.938-23.503 43.642-6.016 4.692 17.446-41.68 21.498-43.642 6.016-1.565-12.363 0 0 0 0z"/></g></svg>