<svg fill="#fff" xmlns="http://www.w3.org/2000/svg"  viewBox="0 0 512 512.001"><path d="M509.926 495.906l-53.934-70.164a9.99 9.99 0 0 0-6.94-3.86c-36.6-3.63-56.125-11.398-71.828-17.645-13.9-5.523-28.25-11.234-46.78-11.234-28.227 0-49.805 15.05-64.44 32.1v-.37c8.152-18.797 29.883-48.457 63.64-48.457 14.523 0 25.832 4.5 38.938 9.7 10.934 4.348 24.543 9.762 44.438 13.94a10 10 0 0 0 11.844-7.73c1.133-5.402-2.328-10.707-7.73-11.84-18.215-3.828-30.402-8.676-41.164-12.957-13.75-5.47-27.97-11.125-46.324-11.125-35.145 0-59.88 23.55-73.64 45-13.762-21.45-38.496-45-73.645-45-18.352 0-32.574 5.656-46.328 11.13-15.52 6.172-34.836 13.855-71.016 17.44-5.496.547-9.508 5.44-8.965 10.938a10.01 10.01 0 0 0 10.941 8.965c38.977-3.867 60.625-12.477 76.434-18.762 13.098-5.2 24.4-9.7 38.934-9.7 33.762 0 55.496 29.664 63.645 48.46v.367C231.36 408.055 209.785 393 181.555 393c-18.527 0-32.9 5.715-46.8 11.242-15.695 6.242-35.227 14.012-71.82 17.64a10 10 0 0 0-6.941 3.859l-53.93 70.164c-2.324 3.02-2.727 7.098-1.043 10.516A10 10 0 0 0 10 512h492a10 10 0 0 0 7.926-16.094zM330.44 413c14.7 0 26.14 4.55 39.398 9.824 15.375 6.117 36.223 14.406 72.9 18.504l38.844 50.535c-66.832-1.44-98.55-14.06-119.96-22.574-12.426-4.94-20.633-8.207-31.2-8.207-18.48 0-31.148 13.87-36.398 25.785l-.14.285-2.277 4.848H266v-29.926C274.242 443.05 296.246 413 330.44 413zm-261.2 28.328c36.688-4.098 57.53-12.4 72.918-18.508 13.246-5.27 24.7-9.82 39.387-9.82 34.195 0 56.203 30.05 64.445 49.074V492h-25.63l-2.273-4.848-.14-.285c-5.254-11.914-17.918-25.785-36.398-25.785-10.56 0-18.766 3.266-31.2 8.207-21.4 8.516-53.133 21.133-119.96 22.574zm88.512 46.543c11.008-4.38 17.07-6.8 23.793-6.8 8.63 0 14.047 6.8 16.547 10.918H147.18l10.582-4.13zM313.898 492c2.5-4.13 7.918-10.918 16.543-10.918 6.727 0 12.8 2.4 23.8 6.793L364.82 492zm130.758-87.277l.363.035.988.05a10 10 0 0 0 .967-19.953l-.355-.035a10 10 0 0 0-1.965 19.902zm-222.4-158.683c-2.598.223-5.023 1.453-6.734 3.45a10 10 0 0 0-2.297 8.031c4.145 26.996 18.512 45.44 39.488 51.766l-1.324 11.363-5.324 50.777c-.574 5.492 3.4 10.414 8.902 10.988.355.04.707.055 1.055.055a10 10 0 0 0 9.934-8.957l5.324-50.777 1.28-11.035c46.516-.574 74.914-30.234 89.13-92.95l5.707-24.152a9.99 9.99 0 0 0-1.648-8.277 10.03 10.03 0 0 0-2.305-2.262l3.934-2.25c2.363-1.348 4.074-3.605 4.734-6.246l43.3-162.9a9.99 9.99 0 0 0-1.855-8.95A9.99 9.99 0 0 0 405.2.02c-3.387.2-83.723 5.996-149.758 113.43l-2.406 3.977a10.01 10.01 0 0 0-1.297 6.742l5.007 30.83h-16.98c-4.008 0-7.625 2.4-9.2 6.074-10.707 25.1-16.86 48.64-18.3 70.008a10 10 0 0 0 2.832 7.664zm131.5-79.48l-26.706 15.26a10 10 0 0 0-4.785 10.922c.988 4.297 4.676 7.44 9.074 7.738l13.848.93-3.004 12.918c-14.434 63.688-41.1 76.262-66.7 77.324 14.672-88.473 51.8-170.633 108.6-240.254l-30.344 115.16zm-107.297 8.445h22.05a10.01 10.01 0 0 0 9.871-11.605l-6.3-38.8.406-.664c31.527-51.293 66.285-76.82 89.9-89.203 5.6-2.934 10.832-5.28 15.617-7.172-34.4 39.953-62.645 84.613-83.965 132.898a533.6 533.6 0 0 0-38.383 128.672c-10.9-4.46-16.73-14.008-19.863-23.12H246a10 10 0 0 0 7.146-16.995L232.6 228.022c1.617-16.25 6.266-34.04 13.852-53.016zm0 0"/></svg>
