<svg fill="#fff" xmlns="http://www.w3.org/2000/svg" viewBox="0 0 512 512"><path d="M407.07 377c-1.86-1.86-4.44-2.93-7.07-2.93s-5.2 1.07-7.07 2.93-2.93 4.44-2.93 7.07 1.07 5.2 2.93 7.07 4.44 2.93 7.07 2.93a10.05 10.05 0 0 0 7.07-2.93c1.86-1.86 2.93-4.44 2.93-7.07s-1.07-5.2-2.93-7.07zM470 0H135a10 10 0 1 0 0 20h335c12.13 0 22 9.87 22 22v258H20V42c0-12.13 9.87-22 22-22h11a10 10 0 1 0 0-20H42C18.84 0 0 18.84 0 42v310.083c0 23.16 18.84 42 42 42h155v48.424c-29.474 3.778-52.333 29.008-52.333 59.493 0 5.522 4.477 10 10 10h202.667c5.523 0 10-4.478 10-10 0-31.172-23.898-56.86-54.333-59.725v-48.192h46.667c5.523 0 10-4.478 10-10s-4.477-10-10-10H42c-12.13 0-22-9.87-22-22V320h472v32.083c0 12.13-9.87 22-22 22h-35.333c-5.523 0-10 4.478-10 10s4.477 10 10 10H470c23.16 0 42-18.84 42-42V42c0-23.16-18.84-42-42-42zM217 394.083h76V442h-76v-47.917zM307.333 462c18.605 0 34.284 12.767 38.735 30H165.932c4.45-17.233 20.13-30 38.734-30h102.667zM99.07 2.93C97.2 1.07 94.63 0 92 0s-5.2 1.07-7.07 2.93S82 7.37 82 10s1.07 5.2 2.93 7.07S89.37 20 92 20s5.2-1.07 7.07-2.93S102 12.63 102 10s-1.07-5.2-2.93-7.07zm163 342.07c-1.86-1.86-4.44-2.93-7.07-2.93s-5.2 1.07-7.07 2.93-2.93 4.44-2.93 7.07c0 2.64 1.07 5.2 2.93 7.07a10.08 10.08 0 0 0 7.07 2.931c2.63 0 5.2-1.07 7.07-2.93s2.93-4.43 2.93-7.07c0-2.63-1.07-5.2-2.93-7.07zM231 38H100a10 10 0 0 0-10 10v30H64a10 10 0 0 0-10 10v168c0 5.522 4.477 10 10 10h131c5.523 0 10-4.478 10-10v-30h26a10 10 0 0 0 10-10V48a10 10 0 0 0-10-10zm-46 208H74V98h63.668v37.582a10 10 0 0 0 10 10H185V246zm-27.332-120.418v-13.35l13.28 13.35h-13.28zM221 206h-16v-70.418a10.03 10.03 0 0 0-2.9-7.052l-47.332-47.582a10 10 0 0 0-7.09-2.948H110V58h111v148zM448 38H317a10 10 0 0 0-10 10v30h-26a10 10 0 0 0-10 10v168c0 5.522 4.477 10 10 10h131c5.523 0 10-4.478 10-10v-30h26a10 10 0 0 0 10-10V48a10 10 0 0 0-10-10zm-46 208H291V98h63.668v37.582a10 10 0 0 0 10 10H402V246zm-27.332-120.418v-13.35l13.28 13.35h-13.28zM438 206h-16v-70.418a10.03 10.03 0 0 0-2.9-7.052l-47.332-47.582a10 10 0 0 0-7.09-2.948H327V58h111v148z"/></svg>
