<svg fill="#fff" xmlns="http://www.w3.org/2000/svg" viewBox="0 -1 512 511"><path d="M223.305.5H10.117A10.12 10.12 0 0 0 0 10.617V223.8c0 5.6 4.53 10.12 10.117 10.12h213.188a10.12 10.12 0 0 0 10.117-10.12V10.617A10.12 10.12 0 0 0 223.305.5zm-10.12 213.184H20.238V20.738h192.945zM79.617 127.328h28.926v28.926c0 12.992 20.238 13.012 20.238 0v-28.926h28.926c12.992 0 13.012-20.234 0-20.234H128.78v-28.93c0-12.992-20.238-13.012-20.238 0V107.1H79.617c-12.992.004-13.012 20.238 0 20.238zM501.883.5H288.695a10.12 10.12 0 0 0-10.117 10.117v111.645c0 12.992 20.238 13.008 20.238 0V20.738H491.76v192.945H298.816V202.87c0-12.992-20.238-13.012-20.238 0v20.93c0 5.6 4.53 10.12 10.117 10.12h213.188A10.12 10.12 0 0 0 512 223.8V10.617A10.12 10.12 0 0 0 501.883.5zm-65.598 126.828c12.992 0 13.012-20.234 0-20.234H358.2c-12.992 0-13.012 20.234 0 20.234zm-212.98 149.035H10.117A10.12 10.12 0 0 0 0 286.48v213.188a10.12 10.12 0 0 0 10.117 10.117h213.188a10.12 10.12 0 0 0 10.117-10.117V286.48a10.12 10.12 0 0 0-10.117-10.117zm-10.12 213.184H20.238V296.602h192.945zM79.617 403.2h78.1c12.992 0 13.012-20.238 0-20.238h-78.1c-12.992 0-13.012 20.238 0 20.238zm422.266-126.827H288.695a10.12 10.12 0 0 0-10.117 10.117v213.188a10.12 10.12 0 0 0 10.117 10.117h213.188A10.12 10.12 0 0 0 512 499.668V286.48a10.12 10.12 0 0 0-10.117-10.117zm-10.12 213.184H298.816V296.602H491.76zm-129.286-61.71c3.906 3.906 10.406 3.906 14.313 0l20.453-20.453 20.453 20.453c9.23 9.23 23.54-5.078 14.313-14.3l-20.453-20.453 20.453-20.453c9.164-9.168-5.125-23.492-14.312-14.312l-20.453 20.453-20.453-20.453c-9.23-9.227-23.54 5.082-14.312 14.313l20.453 20.453-20.453 20.453c-3.902 3.902-3.902 10.406 0 14.3zm0 0"/><path d="M118.66 366.277c5.5 0 10.12-4.617 10.117-10.12s-4.617-10.105-10.117-10.105c-5.344 0-9.86 4.336-10.098 9.664-.254 5.664 4.422 10.563 10.098 10.563zM295.848 169.55c3.898-3.88 3.883-10.426 0-14.3-3.9-3.887-10.418-3.9-14.3 0-3.77 3.773-3.9 10.055-.297 13.98 3.828 4.184 10.6 4.344 14.605.328 1.9-1.883-1.883 1.883 0 0zM118.66 417.9c-5.496 0-10.117 4.62-10.117 10.117s4.62 10.12 10.117 10.12c5.344 0 9.863-4.352 10.098-9.676.254-5.66-4.422-10.562-10.098-10.562zm0 0"/></svg>
