<svg fill="#fff" xmlns="http://www.w3.org/2000/svg" viewBox="0 -12 512.001 512"><path d="M490.2 54.852L384.426 16.96c-8.273-2.96-30.72-9.824-42.07 19.883l-7.852 21.918c-8.53 22.8 7.422 34.77 12.03 38.004l-52.4 146.328c-4.77-.234-10.605.7-15.86 4.45-16.34 11.66-61.863 37.813-131.512 28.898-20.047-2.562-39.473 6.25-50.703 23.008-11.168 16.664-11.758 44.246 5.336 65.367l4.02 32.54c1.098 8.9 7.047 16.215 15.453 19.313 11.246 4.148 19.723-.855 24.2-5.105l10.3-9.8c4.484 1.73 8.926 3.234 13.336 4.56l1.773 14.348c1.098 8.9 6.898 16.652 15.453 19.313 11.434 3.56 19.723-.855 24.2-5.1l17.355-16.496 5.02.977 3.047 24.63c1.098 8.9 6.988 16.37 15.45 19.313 11.305 3.926 19.727-.855 24.2-5.1l17.125-16.277c1.863 1.164 3.734 2.383 5.613 3.668l2.684 21.72c1.098 8.9 6.957 16.465 15.453 19.3 10.094 3.383 19.723-.852 24.2-5.105l21.527-20.46c11.035-4.457 21.777-12.62 31.66-24.398a7.5 7.5 0 0 0-11.488-9.645C353.474 460.975 328.4 449.846 316 440.2c-36.215-28.18-69.336-33.836-101.367-39.3-26.62-4.547-51.762-8.84-78.87-25.488-12.46-7.652-22.113-17.4-28.68-28.94-7.027-12.352-6.484-26.797 1.453-38.637 8.043-12.004 21.97-18.324 36.34-16.484 8.176 1.047 16.04 1.637 23.598 1.848 12.03 7.313 23.93 16.984 37.617 28.117 24.492 19.93 52.102 42.848 92.28 61.07 34.348 15.578 59.582 8.016 68.586 4.6 20.633-7.797 35.8-23.082 45.773-36.332-1.816 17.4-6.8 35.137-14.695 51.28-1.82 3.72-.277 8.2 3.445 10.027a7.5 7.5 0 0 0 10.027-3.445c15.4-31.535 20.746-68.84 14.277-99.78a38.53 38.53 0 0 0-10.277-19.289L468.8 140.563c.8.063 24.672 2.262 33.422-21.72l7.848-21.914c6.117-17.082-2.8-35.96-19.88-42.078zM190.988 425.855a8.42 8.42 0 0 1-5.625-7.027l-1.043-8.434c8.367 1.9 16.62 3.352 24.8 4.75L199.797 424c-2.398 2.277-5.7 2.973-8.8 1.855zm73.88 21.453a8.43 8.43 0 0 1-8.81 1.86 8.42 8.42 0 0 1-5.625-7.03l-2.37-19.184c10.094 2.7 20.215 6.227 30.54 11.305zm71.3 17.4l-6.23 5.922a8.43 8.43 0 0 1-8.81 1.86 8.44 8.44 0 0 1-5.625-7.031l-1.012-8.2c7.066 4.13 14.344 6.602 21.676 7.44zM127.9 388.164c4.242 2.605 8.45 4.93 12.62 7.02l-5.8 5.504a8.43 8.43 0 0 1-8.81 1.86 8.44 8.44 0 0 1-5.625-7.031l-1.7-13.75a109.07 109.07 0 0 0 9.301 6.398zm224.727-93.32c-7.4 10.8-15.055 17.203-22.113 18.516-4.406.82-8.805-.336-13.445-3.527-5.95-4.098-8.918-8.465-9.082-13.352-.133-4.14 1.64-8.918 5.273-14.203 4.516-6.562 5.707-14.637 3.262-22.152-1.555-4.793-4.457-8.875-8.305-11.863l52.047-145.32 94.027 33.684-51.594 144.05c-20.43-9.906-39.72-.93-50.07 14.168zm9.016 78.086c-17.527 6.625-36.7 5.22-56.977-4.184-38.324-17.77-65.312-39.727-89.13-59.098l-21.72-17.227c47.633-4.16 79.613-22.996 93.168-32.668 1.94-1.383 8.97-4.137 13.438.914s1.406 11.762.484 13.105c-5.492 7.98-8.152 15.785-7.9 23.2.324 9.844 5.563 18.328 15.57 25.215 7.973 5.488 16.277 7.48 24.684 5.918 11.215-2.082 21.898-10.418 31.746-24.78 6.547-9.55 18.672-13.598 29.426-9.695 17.57 6.375 17.93 25.055 18.32 28.617-3.805 7.688-20.96 39.293-51.102 50.684zM495.95 91.87l-7.848 21.914c-3.328 9.297-13.602 14.148-22.895 10.82l-105.762-37.9c-4.504-1.613-16.062-8.87-10.82-22.898l7.848-21.914c1.613-4.5 6.48-15.656 22.895-10.816l105.766 37.887c9.293 3.328 14.148 13.602 10.816 22.898zm-312.5 154.157c31.246-14.527 54.96-40.355 66.785-72.723s10.332-67.406-4.195-98.656a130.1 130.1 0 0 0-13.332-22.465 7.5 7.5 0 0 0-12.055 8.922c3.875 5.242 7.32 10.863 10.273 16.742l-30.38-12.87-11.02-32.598a114.7 114.7 0 0 1 10.816 7.645 7.5 7.5 0 0 0 9.364-11.715C191.23 13.53 169.04 4.113 145.535 1.066c-24.16-3.133-48.66.668-70.852 10.984-31.246 14.527-54.96 40.355-66.785 72.723s-10.332 67.406 4.195 98.656c21.828 46.96 68.504 74.62 117.168 74.617 18.18 0 36.645-3.863 54.188-12.02zm-26.8-6.355l-35.48-25.512 7.3-37.246 37.578-17.473 33.223 18.457-2.88 43.2c-14.566 11.43-32.816 16.855-39.73 18.582zM116.164 101.3l37.473 7.332 4.6 37.906-34.62 16.098L97.62 134.67zm122.44-3.895a112.71 112.71 0 0 1 4.188 40.195l-36.324 27.148-33.137-18.406-5.004-41.14 27.742-25.82zm-26.242 109.563l1.957-29.36 24.703-18.465c-4.164 18.72-16.328 36.78-26.66 47.824zM170.457 22.805l15.406 45.574-27.75 25.832-40.668-7.953-15.98-34.383 31.77-36.78c3.457.13 20.6.766 37.223 7.7zm-58.027-6.57l-23.285 26.96-35.812.563c8.188-7.254 26.484-24.53 59.098-27.523zM39.066 58.98l48.805-.766 15.977 34.367-20.133 36.223-37.617 4.566L21.25 92.016c.238-.7 4.418-20.75 17.816-33.035zm-22.86 53.766l17.8 29.605-9.95 31.027c-8.2-19.36-10.832-40.203-7.84-60.633zm17.68 79.063l13.96-43.54 37.68-4.578 28.223 30.34-7.28 37.207L62.414 221.5c-11.035-7.93-20.766-17.902-28.527-29.7zm47.434 40.688l29.96-6.98 24.145 17.36c-2.066.113-33.203 1.14-54.105-10.38zm0 0"/></svg>
