<svg fill="#fff" xmlns="http://www.w3.org/2000/svg" viewBox="0 0 512.003 512.003"><path d="M117.878 318.825c-26.985 0-48.938 21.954-48.938 48.938S90.894 416.7 117.878 416.7s48.938-21.954 48.938-48.938-21.954-48.938-48.938-48.938zm0 82.876c-18.714 0-33.938-15.225-33.938-33.938s15.225-33.938 33.938-33.938 33.938 15.225 33.938 33.938S136.6 401.7 117.878 401.7zM95.313 196.725c-26.985 0-48.938 21.954-48.938 48.938S68.33 294.6 95.313 294.6s48.938-21.954 48.938-48.938-21.953-48.938-48.938-48.938zm0 82.877c-18.714 0-33.938-15.225-33.938-33.938s15.225-33.938 33.938-33.938 33.938 15.225 33.938 33.938-15.224 33.938-33.938 33.938zm116.372-145.648c-35.073 0-59.165 37.945-44.292 69.702 8.02 17.127 25.427 28.194 44.346 28.194 20.406 0 39.05-13.13 45.987-32.285 11.382-31.433-12.746-65.6-46.04-65.6zm31.938 60.503c-4.805 13.268-17.765 22.393-31.883 22.393-13.125 0-25.2-7.676-30.762-19.555a33.71 33.71 0 0 1-1.176-25.949c4.8-13.226 17.8-22.392 31.883-22.392 23.102 0 39.816 23.748 31.938 45.503zm202.872-54.937c4.174-8.46 6.562-17.922 7.096-28.333l.023-.448c1.037-21.358-6.505-41.9-20.692-56.382-11.4-11.64-19.786-24.5-24.893-38.246C404.597 6.88 396.427.914 387.214.914 381.8.913 376.54 3.042 372.398 6.907c-17.4 16.244-38.263 43.697-43.818 84.842-23.273-4.378-47.418-6.602-71.902-6.602-61.212 0-117.96 13.26-164.112 38.347a7.5 7.5 0 1 0 7.164 13.178c43.96-23.895 98.23-36.525 156.948-36.525 24.08 0 47.803 2.226 70.62 6.62-.162 6.004.34 12.018 1.617 17.9l.236 1.104c-9.902 2.536-18.893 8.125-25.505 16.058a48.62 48.62 0 0 0-11.147 35.758c2.255 24.843 23.752 44.5 48.705 44.5 4.345 0 8.682-.605 12.87-1.74 2.405 12.292 5.83 25.502 10.7 38.862l-.045.122c-1.18 3.25-2.25 6.537-3.22 9.855-8.66 29.575-12.996 72.237-11.635 116.285-34.165 10.005-71.258 15.278-107.67 15.278h-.32c-17.17 0-29.947 16.964-25.053 33.46.743 2.5 1.576 4.998 2.458 7.64 6.345 19.015 11.825 35.437-12.746 48.8-6.966 3.788-14.513 5.46-22.4 5.46-40.668-.001-90.15-44.555-113.925-72.543-19.35-22.78-34.586-49.95-44.063-78.578-9.6-28.97-13.08-58.897-10.086-86.544C20.787 214.856 41.1 178.24 74.816 152.56a7.5 7.5 0 1 0-9.09-11.932C28.65 168.865 6.322 209.047 1.15 256.83c-6.53 60.316 15.015 126.278 57.63 176.447 7.228 8.5 33.406 37.86 66.792 58.302 21.186 12.97 40.982 19.5 58.604 19.5 10.7 0 20.603-2.413 29.52-7.262 35.6-19.367 26.1-47.867 19.808-66.725l-2.306-7.16c-2.102-7.08 3.416-14.15 10.688-14.194h.305c36.598 0 73.87-5.147 108.427-14.904 2.398 39.134 9.4 74.02 20.715 90.63 6.785 9.968 14.162 12.06 19.154 12.06s12.37-2.092 19.154-12.06c14.55-21.375 21.992-73.024 21.63-125.045 24.186-14.72 43.448-31.632 57.27-50.32 15.567-21.047 23.46-43.313 23.46-66.177 0-41.172-23.2-80.162-65.508-110.412zm-105.292 67.568c-17.33 0-32.203-13.64-33.767-30.866-1.533-16.892 10.22-32.863 26.836-36.285l.78 1.537c1.343 2.52 2.86 4.93 4.5 7.26 2.652 3.74 5.718 7.287 9.077 10.413-.193 7.3-.186 24.544 2.923 46.33-3.338 1.06-6.845 1.6-10.358 1.6zm1.428-105.74c3.3-41.074 23.407-67.983 40.003-83.475 1.373-1.282 2.957-1.96 4.58-1.96 2.922-.001 5.5 2.077 6.754 5.422 5.845 15.723 15.347 30.365 28.24 43.52 11.27 11.5 17.256 27.958 16.422 45.156l-.02.393c-1.38 27.097-23.307 52.54-52.14 50.186-29.565-2.414-46.04-31.778-43.84-59.243zm21.037 68.234c4.584 2.264 9.413 3.93 14.424 4.95a59.65 59.65 0 0 0 14.797 1.146 60.79 60.79 0 0 0 24.424-6.503c-.375 17.257-2.806 49.594-14.363 82.567h-24.927c-11.47-32.727-13.952-64.812-14.355-82.16zm52.528 212.684c-1.157 45.997-8.597 85.55-18.955 100.768-1.398 2.054-4.136 5.5-6.754 5.5s-5.356-3.447-6.754-5.5c-9.762-14.34-16.93-50.3-18.7-92.895-.553-13.228-.555-26.478-.074-39.7 1.263-33.017 5.834-62.915 13.03-83.687h24.98c7.945 22.95 12.768 57.333 13.325 95.535 0 .04.01.08.01.123a517.95 517.95 0 0 1-.117 19.865zm60.285-75.078c-11.23 15.184-26.515 29.178-45.536 41.708-1.427-35.993-6.513-67.196-14.6-89.3l-.144-.395c16.456-45.24 16.466-88.77 16.107-100.67a71.16 71.16 0 0 0 4.281-4.387c.185-.207 1.738-2.04 1.758-2.027 37.882 27.292 58.645 61.8 58.645 97.805 0 19.583-6.904 38.848-20.52 57.257z"/></svg>
