<svg fill="#fff" xmlns="http://www.w3.org/2000/svg" viewBox="0 0 512 512"><circle cx="423.26" cy="282.91" r="15.52"/><path d="M390.896 398.253a7.5 7.5 0 0 0 10.07-3.331l28.36-56.395c28.005-3.035 49.88-26.814 49.88-55.613 0-30.85-25.098-55.947-55.947-55.947a55.97 55.97 0 0 0-11.706 1.241l-97.323-97.324c11.66-18.74 14.52-41.088 9.132-61.504.802-.682 1.585-1.383 2.325-2.124 15.36-15.36 15.36-40.356 0-55.717C318.244 4.098 308.35 0 297.827 0s-20.417 4.098-27.86 11.54c-.74.74-1.442 1.523-2.124 2.325-21-5.544-44.073-2.374-63.138 10.155L87.67 100.93c-6.374-1.4-20.647-3.757-35.36-1.182-18.7 3.273-26.067 27.082-12.684 40.465l51.217 51.217c-4.412 6.493-6.79 14.15-6.79 22.172a39.31 39.31 0 0 0 11.589 27.979c7.473 7.473 17.41 11.59 27.98 11.59 8.023 0 15.68-2.377 22.172-6.79l51.218 51.217c13.37 13.37 37.198 5.99 40.465-12.683 2.573-14.712.207-28.985-1.182-35.36l43.86-66.744 88.396 88.396c-.807 3.777-1.24 7.69-1.24 11.706a55.58 55.58 0 0 0 7.698 28.27L309.382 441.69h-91.13c-34.634 0-62.81 28.177-62.81 62.81a7.5 7.5 0 0 0 7.5 7.5h269.777a7.5 7.5 0 0 0 7.5-7.5c0-34.62-28.154-62.786-62.768-62.8l10.16-20.204a7.5 7.5 0 1 0-13.401-6.739L360.66 441.69h-34.488l59.168-117.66a55.78 55.78 0 0 0 6.411 5.091c6.316 4.302 13.45 7.23 20.937 8.728.057.01.114.025.17.036l-25.294 50.3a7.5 7.5 0 0 0 3.331 10.07zm-13.49 58.436c23.813 0 43.615 17.497 47.223 40.31H171.026c3.61-22.813 23.41-40.31 47.223-40.31h159.156zM297.827 15c6.517 0 12.644 2.538 17.252 7.146 8.623 8.624 9.43 22.148 2.42 31.688-2.64-5.188-5.856-10.033-9.605-14.517-3.023-3.615-6.363-6.956-9.978-9.98a77.1 77.1 0 0 0-14.527-9.613A24.22 24.22 0 0 1 297.827 15zM123.622 238.17c-6.563 0-12.732-2.555-17.372-7.195s-7.196-10.8-7.196-17.372a24.45 24.45 0 0 1 2.713-11.249l33.104 33.104c-3.437 1.773-7.27 2.712-11.25 2.712zm103.4-1.83l-86.38-86.38a7.5 7.5 0 0 0-10.606 10.606l91.42 91.42c1.055 4.63 3.478 17.532 1.238 30.346-1.224 6.992-10.118 9.626-15.083 4.66L50.234 129.608c-4.977-4.977-2.316-13.864 4.66-15.084 12.816-2.242 25.726.186 30.346 1.238L108.99 139.5a7.5 7.5 0 0 0 10.606-10.606l-18.71-18.71 112.058-73.638c22.43-14.74 51.7-13.47 72.744 2.244 4.794 3.58 9.14 7.933 12.752 12.757 15.7 21.042 16.965 50.302 2.23 72.725L227.032 236.34zm147.288 19.424l-85.753-85.753 17.28-26.295 90.26 90.26a55.71 55.71 0 0 0-21.787 21.787zm7.99 27.516v-.368c-.105-20.505 16.373-38.612 36.698-40.727 1.41-.147 2.83-.22 4.25-.22 22.58.001 40.948 18.37 40.948 40.948 0 22.2-17.76 40.315-39.816 40.918-22.5.615-41.878-18.056-42.077-40.55z"/></svg>
