<svg fill="#fff" xmlns="http://www.w3.org/2000/svg" viewBox="0 0 512 512"><path d="M510.052 291.984l-.1-.92L484.3 112.497a10 10 0 0 0-13.63-7.857l-118.103 47.482c-5.125 2.06-7.608 7.885-5.55 13s7.887 7.6 13 5.55l106.284-42.73 23.68 164.776a10.03 10.03 0 0 0 .138 1.396 133.36 133.36 0 0 1-15.96 88.819c-17.815 30.856-46.613 52.9-81.092 62.096-34.488 9.2-70.53 4.4-101.487-13.463-.214-.124-.434-.228-.653-.334a181.18 181.18 0 0 0 18.703-16.347l117.078-31.37c5.336-1.43 8.502-6.914 7.072-12.25s-6.917-8.502-12.248-7.072l-90.086 24.138c9.9-14.726 17.643-30.966 22.935-48.34l80.372-21.535c5.336-1.43 8.502-6.914 7.072-12.25s-6.917-8.502-12.248-7.072L370.44 315l22.238-38.52 46.995-12.592c5.336-1.43 8.502-6.914 7.072-12.25s-6.917-8.502-12.248-7.072l-27.675 7.416 21.28-36.86a10 10 0 0 0-3.66-13.66c-4.783-2.76-10.9-1.123-13.66 3.66L389.5 241.97l-7.416-27.675c-1.43-5.335-6.915-8.502-12.248-7.072s-8.502 6.914-7.072 12.25l12.592 46.995-13.012 22.538c.384-32.013-7.807-63.65-24.224-92.083-20.673-35.806-53.298-63.614-91.906-78.346l-.192-.08-45.252-18.366a10 10 0 0 0-13.027 5.506c-2.077 5.12.388 10.95 5.506 13.028l44.84 18.198a8.12 8.12 0 0 0 .62.26c34.5 13.06 63.643 37.85 82.1 69.8 21.472 37.192 27.136 80.543 15.948 122.07-10.32 38.306-33.847 70.82-66.707 92.544l-16.784-29.07 36.387-135.796c1.43-5.336-1.736-10.82-7.072-12.25a10 10 0 0 0-12.248 7.072l-31.2 116.478-37.026-64.13 25.244-94.208c1.43-5.336-1.736-10.82-7.072-12.25a10 10 0 0 0-12.248 7.072l-20.066 74.888L158.76 228.8l15.203-56.735c1.43-5.336-1.736-10.82-7.072-12.25a10 10 0 0 0-12.248 7.072l-10.027 37.415-27.65-47.892a10 10 0 1 0-17.321 10.001l27.65 47.9-37.414-10.025a10 10 0 0 0-12.248 7.072c-1.43 5.336 1.736 10.82 7.072 12.25l56.734 15.203 29.187 50.553L95.75 269.28a10 10 0 0 0-12.248 7.072c-1.43 5.336 1.736 10.82 7.072 12.25l94.206 25.243 37.026 64.13-116.475-31.2a10 10 0 0 0-12.248 7.072c-1.43 5.336 1.736 10.82 7.072 12.25l135.795 36.386 16.782 29.067c-75.574 37.666-168.58 10.538-211.238-63.345C22.848 335.9 16.016 297.88 22.257 261.138c.085-.496.13-1 .138-1.484L50.952 60.908l66.25 26.9a10 10 0 0 0 13.027-5.506c2.077-5.12-.388-10.95-5.506-13.028l-78.09-31.697a10.01 10.01 0 0 0-8.741.594 10 10 0 0 0-4.919 7.251L2.408 258.086c-.05.337-.08.675-.093 1a180.79 180.79 0 0 0 21.853 119.095c33.413 57.875 94.294 90.246 156.878 90.245 27.64 0 55.6-6.34 81.693-19.56l12.3 21.288c1.853 3.208 5.214 5.002 8.67 5.002a9.96 9.96 0 0 0 4.991-1.341 10 10 0 0 0 3.66-13.661l-4.557-7.894c22.098 11.472 46.2 17.34 70.592 17.34 13.3 0 26.666-1.737 39.843-5.248 39.65-10.566 72.773-35.932 93.264-71.423a153.41 153.41 0 0 0 18.558-100.956zM165.258 86.56c-1.86-1.86-4.44-2.93-7.07-2.93s-5.2 1.07-7.07 2.93c-1.86 1.87-2.93 4.44-2.93 7.07a10.1 10.1 0 0 0 2.93 7.08c1.86 1.86 4.44 2.93 7.07 2.93s5.2-1.07 7.07-2.93a10.08 10.08 0 0 0 2.931-7.081 10.05 10.05 0 0 0-2.93-7.07zm278.626 87.807l-.06-.082c-3.246-4.47-9.5-5.46-13.97-2.215a10 10 0 0 0-2.216 13.968l.06.08a9.99 9.99 0 0 0 8.101 4.125c2.037 0 4.094-.62 5.87-1.9 4.468-3.245 5.46-9.5 2.215-13.968z"/></svg>
