<svg fill="#fff" xmlns="http://www.w3.org/2000/svg" viewBox="0 0 496 496"><path d="M472 4H216c-13.255 0-24 10.745-24 24v56h-40c-13.255 0-24 10.745-24 24a8 8 0 0 1-8 8H72c-13.255 0-24 10.745-24 24s10.745 24 24 24a8 8 0 0 1 8 8H8a8 8 0 0 0-8 8v144c.037 1.42.46 2.803 1.224 4C.46 329.197.037 330.58 0 332v48c.026 22.08 17.92 39.974 40 40v64a8 8 0 0 0 8 8h400a8 8 0 0 0 8-8V356a8 8 0 0 0-8-8H48a8 8 0 0 0-8 8v48c-13.255 0-24-10.745-24-24v-48h136a8 8 0 0 0 8-8V180a8 8 0 0 0-8-8H96c0-13.255-10.745-24-24-24a8 8 0 1 1 0-16h48c13.255 0 24-10.745 24-24a8 8 0 0 1 8-8h40v208c0 13.255 10.745 24 24 24h256c13.255 0 24-10.745 24-24V28c0-13.255-10.745-24-24-24zM56 364h384v112H56V364zm88-48H16v-16h128v16zm0-128v96H16v-96h128zm336 120a8 8 0 0 1-8 8H216a8 8 0 0 1-8-8v-8h272v8zm0-24H208V28a8 8 0 0 1 8-8h256a8 8 0 0 1 8 8v256zM413.336 44H274.664c-23.55.03-42.633 19.114-42.664 42.664v138.672c.03 23.55 19.114 42.633 42.664 42.664h138.672c23.55-.03 42.633-19.114 42.664-42.664V86.664c-.03-23.55-19.114-42.633-42.664-42.664zM440 225.336c-.022 14.717-11.947 26.642-26.664 26.664H274.664c-14.717-.022-26.642-11.947-26.664-26.664V86.664c.022-14.717 11.947-26.642 26.664-26.664h138.672c14.717.022 26.642 11.947 26.664 26.664v138.672zM128 204H32a8 8 0 1 0 0 16v24a8 8 0 0 0 8 8h80a8 8 0 0 0 8-8v-24a8 8 0 1 0 0-16zm-16 32H48v-16h64v16zm304 136H80a8 8 0 0 0-8 8v80a8 8 0 0 0 8 8h336a8 8 0 0 0 8-8v-80a8 8 0 0 0-8-8zm-264 80H88v-24h64v24zm0-40H88v-24h64v24zm88 40h-72v-24h72v24zm0-40h-72v-24h72v24zm80 40h-64v-24h64v24zm0-40h-64v-24h64v24zm88 40h-72v-24h72v24zm0-40h-72v-24h72v24z"/></svg>
