<svg fill="#fff" xmlns="http://www.w3.org/2000/svg" viewBox="0 0 512 512"><path d="M465.138 381.583c14.264 0 25.87-11.604 25.87-25.868 0-12.124-8.385-22.32-19.66-25.1C495.793 314.758 512 287.237 512 256s-16.207-58.76-40.652-74.605c11.274-2.79 19.66-12.987 19.66-25.1 0-14.264-11.604-25.868-25.87-25.868-20.462 0-37.11-16.647-37.11-37.11s16.647-37.11 37.11-37.11c14.264 0 25.87-11.604 25.87-25.87S479.404 4.46 465.14 4.46H404.36a7.5 7.5 0 0 0 0 15h60.778c5.993 0 10.87 4.875 10.87 10.868s-4.875 10.87-10.87 10.87H217.426c-28.075 0-52.11 24.087-52.11 52.11 0 28.733 23.376 52.11 52.11 52.11H465.14c5.993 0 10.87 4.875 10.87 10.868s-4.875 10.87-10.87 10.87H217.424c-40.717-.001-73.844-33.13-73.844-73.846 0-40.13 33.757-73.846 73.846-73.846H374.36a7.5 7.5 0 0 0 0-15H88.846C39.856 4.46 0 44.317 0 93.307c0 31.237 16.207 58.76 40.652 74.604-11.274 2.79-19.66 12.986-19.66 25.1 0 14.264 11.604 25.87 25.875 25.87 20.46.004 37.103 16.65 37.103 37.1s-16.645 37.105-37.11 37.11c-14.264 0-25.868 11.605-25.868 25.87 0 12.124 8.385 22.32 19.66 25.1C16.207 359.933 0 387.454 0 418.69c0 49 39.856 88.847 88.846 88.847h376.292c14.264 0 25.87-11.604 25.87-25.87s-11.604-25.87-25.87-25.87c-20.462 0-37.11-16.647-37.11-37.11s16.642-37.103 37.11-37.108zM217.426 130.416c-20.462 0-37.11-16.647-37.11-37.11s16.647-37.11 37.11-37.11H428.59c-9.6 9.457-15.562 22.6-15.562 37.11s5.96 27.652 15.562 37.11H217.426zm205.727 51.737C463.873 182.152 497 215.28 497 256s-33.127 73.846-73.847 73.846h-79.228c.042-.028.082-.057.123-.085 17.988-12.098 31.463-31.035 36.725-52.196 1.725-6.938 2.646-14.325 2.646-21.565 0-22-8.453-43.926-23.43-60.053-4.777-5.144-10.114-9.786-15.94-13.707l-.125-.086h79.23zM15 93.307c0-40.72 33.127-73.847 73.846-73.847h79.228c-.044.03-.086.06-.13.1-24.37 16.293-39.364 44.466-39.364 73.756 0 29.32 15.145 57.348 39.362 73.754.045.03.088.062.133.092h-79.23C48.126 167.15 15 134.023 15 93.307zm20.993 225.67c0-5.994 4.875-10.87 10.868-10.87h80.5a7.5 7.5 0 1 0 0-15H83.408c9.6-9.457 15.562-22.6 15.562-37.108s-5.96-27.652-15.563-37.11h211.166c20.462 0 37.11 16.647 37.11 37.11s-16.647 37.11-37.11 37.11H157.36a7.5 7.5 0 1 0 0 15h137.213c28.733 0 52.11-23.376 52.11-52.11s-23.376-52.11-52.11-52.11H46.86c-5.993 0-10.868-4.876-10.868-10.87s4.875-10.87 10.868-10.87h247.713c40.72 0 73.847 33.127 73.847 73.847s-33.127 73.846-73.847 73.846H46.86c-5.993 0-10.868-4.875-10.868-10.87zm52.853 173.56C48.127 492.54 15 459.41 15 418.69s33.127-73.846 73.846-73.846h79.228c-.04.027-.08.056-.12.083a89.88 89.88 0 0 0-24.012 23.879 89.03 89.03 0 0 0-15.362 49.884 89.36 89.36 0 0 0 6.701 33.838 89.42 89.42 0 0 0 32.664 39.918c.044.03.086.06.13.1H88.846zm376.293-21.736c5.993 0 10.87 4.876 10.87 10.87s-4.875 10.87-10.87 10.87H217.426c-40.72 0-73.846-33.128-73.846-73.847s33.127-73.846 73.846-73.846l247.713-.001c5.993 0 10.87 4.875 10.87 10.87s-4.874 10.867-10.87 10.868H217.426c-28.24 0-52.11 23.678-52.11 52.11 0 28.105 23.996 52.1 52.11 52.1H465.14zm-52.1-52.11c0 14.51 5.96 27.652 15.562 37.11H217.426c-20.462 0-37.11-16.647-37.11-37.11 0-20.163 16.958-37.1 37.11-37.1H428.59c-9.6 9.46-15.562 22.602-15.562 37.1z"/></svg>
