<svg fill="#fff" xmlns="http://www.w3.org/2000/svg" viewBox="0 0 448.04 448.04"><path d="M172.592 297.563v15.95c0 6.68 2.47 12.792 6.543 17.474v57.02c0 13.195 10.735 23.93 23.93 23.93h41.914c13.194 0 23.93-10.734 23.93-23.93v-57.02a26.54 26.54 0 0 0 6.543-17.473v-15.95c42.43-19.9 69.52-62.236 69.52-109.495 0-66.69-54.258-120.948-120.95-120.948s-120.95 54.257-120.95 120.948c-.001 47.258 27.09 89.593 69.52 109.493zm78.316 90.444c0 3.214-2.715 5.93-5.93 5.93h-41.914c-3.214 0-5.93-2.715-5.93-5.93V376.05h29.804a9 9 0 1 0 0-18h-29.804v-17.968a26.76 26.76 0 0 0 2.109.083H248.8c.7 0 1.413-.028 2.108-.083v47.925zM224.02 85.12c56.767 0 102.95 46.183 102.95 102.948 0 41.967-25.096 79.372-63.935 95.293a9 9 0 0 0-5.586 8.328v21.823c0 4.77-3.88 8.65-8.65 8.65h-49.556c-4.77 0-8.652-3.88-8.652-8.65V291.69a9 9 0 0 0-5.586-8.328c-38.838-15.92-63.933-53.325-63.933-95.292 0-56.766 46.183-102.948 102.95-102.948zm-9.003-51.166V9a9 9 0 1 1 18 0v24.955a9 9 0 1 1-18 0zm.003 83.146a9 9 0 0 1 9-9c46.6 0 84.53 37.92 84.53 84.53a9 9 0 1 1-18 0c0-36.685-29.846-66.53-66.53-66.53-4.97 0-9-4.03-9-9zm136.914-64.12a9 9 0 0 1 0 12.728L335.33 82.314c-1.758 1.757-4.062 2.636-6.364 2.636a8.97 8.97 0 0 1-6.364-2.636 9 9 0 0 1 .001-12.728l16.604-16.604a9 9 0 0 1 12.727 0zm52.985 127.916a9 9 0 0 1-9 9h-19.873a9 9 0 1 1 0-18h19.873c4.97 0 9 4.03 9 9zm-59.652 230.607c0 12.425-12.996 21.653-39.73 28.21-21.882 5.368-50.83 8.324-81.513 8.324-32.522 0-63.798-3.44-85.81-9.435-23.848-6.497-35.44-15.36-35.44-27.1 0-13.833 16.05-23.732 49.07-30.266 4.87-.966 9.6 2.205 10.576 7.082s-2.206 9.61-7.082 10.576c-23.037 4.56-32.005 10.175-34.2 12.58 1.394 1.502 6.357 5.556 21.798 9.762 20.534 5.594 50.085 8.802 81.077 8.802 27.058 0 52.965-2.42 72.95-6.813 21.865-4.807 28.298-10.006 29.92-11.752-2.188-2.406-11.156-8.02-34.19-12.58-4.876-.965-8.047-5.7-7.082-10.576s5.7-8.046 10.576-7.082c33.02 6.534 49.072 16.434 49.072 30.267zM112.7 82.317L96.105 65.71a9 9 0 1 1 12.728-12.728l16.605 16.605a9 9 0 0 1 0 12.728 8.97 8.97 0 0 1-12.728.001zm-31.714 98.58a9 9 0 0 1-9 9H52.12a9 9 0 1 1 0-18h19.875c4.972 0 9 4.03 9 9z"/></svg>
