<svg fill="#fff" xmlns="http://www.w3.org/2000/svg" xmlns:xlink="http://www.w3.org/1999/xlink" height="512" viewBox="0 0 64 64" width="512"><path d="M4 30.996h2.987l-.001 16c0 3 1.526 5.796 4 7.46V56a1 1 0 0 0-.987.997v2.007a1 1 0 0 0-1 1V63a1 1 0 1 0 2 0v-1.996h10V63a1 1 0 1 0 2 0v-2.996a1 1 0 0 0-1-1v-2.007a1 1 0 0 0-1-1h-.005v-1.68c1.073-.774 2.054-1.785 2.9-3.042l6.387-9.405c.98-1.44.93-3.046-.12-4.097-1.15-1.15-3.003-1.16-4.218-.023l-.966.92v-7.674h14.025v7.674l-.958-.914c-1.224-1.144-3.076-1.134-4.226.016-1.05 1.05-1.1 2.657-.12 4.095l6.386 9.405c.857 1.26 1.838 2.27 2.9 3.044v1.68h-.006a1 1 0 0 0-1 1v2a1 1 0 0 0-.986.997V63a1 1 0 1 0 2 0v-1.996h10V63a1 1 0 1 0 2 0v-2.996a1 1 0 0 0-1-1h-.014v-2.007c0-.548-.44-1-.986-.997v-1.533c2.474-1.664 4-4.46 4-7.46v-16l2.986-.01c1.654 0 3-1.346 3-3V3c0-1.654-1.346-3-3-3H4C2.347 0 1 1.346 1 3v24.996c0 1.654 1.346 3 3 3zm8 28.008v-1.007h8v1.007zm16.757-19.817c.533.533-.006 1.392-.12 1.56l-.001.001-6.385 9.404c-.826 1.2-1.767 2.157-2.795 2.814-.03.02-.047.05-.074.07-.055.044-.104.1-.148.143a1.19 1.19 0 0 0-.104.154c-.03.056-.055.1-.075.173s-.032.13-.04.2c-.004.035-.02.066-.02.103V56h-6.008v-2.06c0-.043-.02-.08-.024-.12-.01-.07-.018-.135-.04-.2s-.052-.116-.084-.173-.063-.104-.104-.152a1.04 1.04 0 0 0-.157-.14c-.032-.024-.054-.06-.1-.08a7.03 7.03 0 0 1-3.501-6.064V31a1 1 0 1 1 2 0v7a1 1 0 1 0 2 0V28a1 1 0 1 1 2 0v10a1 1 0 0 0 2 0V26.06c.001-.022.013-.04.013-.063v-1.052c.034-.52.458-.938.987-.938a1 1 0 0 1 1 1v13a1 1 0 1 0 2 0v-10a1 1 0 1 1 2 0v13c0 .05.02.1.027.137.012.08.018.158.048.234s.08.138.128.204c.027.037.04.08.073.115a1.03 1.03 0 0 0 .335.232 1.01 1.01 0 0 0 .389.078.99.99 0 0 0 .377-.076c.063-.026.114-.07.17-.1.048-.03.1-.05.143-.1l2.643-2.52c.424-.396 1.055-.405 1.436-.023zM15 24.88c-.002.04-.012.076-.012.115H14v-1h1zm28 .116H21v-1h22zm-18.013 4v-1a2.95 2.95 0 0 0-.188-1.01h14.4c-.114.317-.188.654-.188 1v1zM44 59.004v-1.007h8v1.007zm7.513-5.933c-.036.02-.058.055-.1.08a.94.94 0 0 0-.157.139 1.21 1.21 0 0 0-.104.153c-.032.053-.063.1-.084.172s-.03.13-.04.2c-.005.042-.024.078-.024.12v2.06h-6.008v-2.2c0-.036-.017-.067-.02-.104-.008-.068-.02-.133-.04-.198a.93.93 0 0 0-.075-.173.97.97 0 0 0-.104-.154 1 1 0 0 0-.148-.143c-.027-.02-.044-.052-.074-.07-1.028-.657-1.97-1.604-2.795-2.814l-6.386-9.404c-.113-.167-.652-1.025-.12-1.56.382-.382 1.013-.372 1.437.022l2.643 2.52c.043.04.096.06.143.1.057.038.107.084.17.1a.99.99 0 0 0 .377.076 1.01 1.01 0 0 0 .389-.078c.124-.053.233-.13.325-.225.042-.04.056-.085.082-.122.048-.065.1-.128.13-.205s.036-.153.048-.232c.007-.047.027-.1.027-.138v-13a1 1 0 1 1 2 0v10a1 1 0 1 0 2 0v-13a1 1 0 0 1 1-1c.53 0 .953.417.987.938v1.052c0 .022.012.04.013.063v11.947a1 1 0 1 0 2 0v-10a1 1 0 1 1 2 0v10a1 1 0 1 0 2 0v-7a1 1 0 1 1 2 0v16c-.001 2.5-1.343 4.815-3.502 6.065zM50 24.997h-.988c0-.04-.01-.076-.012-.115v-.884h1zM3 3a1 1 0 0 1 1-1h56a1 1 0 0 1 1 1v24.996a1 1 0 0 1-1 1h-3.775c-.55-.603-1.333-1-2.2-1-.353 0-.686.072-1 .184v-.184c0-.9-.396-1.68-1.013-2.23v-2.78a1 1 0 0 0-1-1h-3c-.28 0-.533.117-.715.304-.388-.184-.815-.294-1.272-.294-.464 0-.898.115-1.3.304A1.01 1.01 0 0 0 44 22H20c-.285 0-.54.122-.72.313a2.95 2.95 0 0 0-1.29-.304 2.95 2.95 0 0 0-1.272.294c-.182-.187-.434-.304-.715-.304h-3a1 1 0 0 0-1 1v2.78c-.616.55-1.013 1.34-1.013 2.23v.184c-.314-.112-.647-.184-1-.184-.878 0-1.662.386-2.2 1H4a1 1 0 0 1-1-1zm3 12h3a1 1 0 0 0 1-1v-3a1 1 0 0 0-1-1H6a1 1 0 0 0-1 1v3a1 1 0 0 0 1 1zm1-3h1v1H7z"/><use xlink:href="#B"/><use xlink:href="#B" x="7"/><use xlink:href="#B" x="14"/><use xlink:href="#B" x="21"/><use xlink:href="#B" x="28"/><use xlink:href="#B" x="35"/><path d="M6 21h10a1 1 0 0 0 1-1v-3a1 1 0 0 0-1-1H6a1 1 0 0 0-1 1v3a1 1 0 0 0 1 1zm1-3h8v1H7z"/><use xlink:href="#B" x="7" y="6"/><use xlink:href="#B" x="14" y="6"/><use xlink:href="#B" x="21" y="6"/><use xlink:href="#B" x="28" y="6"/><use xlink:href="#B" x="35" y="6"/><path d="M55 21h3a1 1 0 0 0 1-1v-9a1 1 0 0 0-1-1h-3a1 1 0 0 0-1 1v9a1 1 0 0 0 1 1zm1-9h1v7h-1zM6 26.997h3a1 1 0 0 0 1-1v-3a1 1 0 0 0-1-1H6a1 1 0 0 0-1 1v3a1 1 0 0 0 1 1zm1-3h1v1H7z"/><use xlink:href="#B" x="42" y="11.997"/><path d="M7.5 9C8.88 9 10 7.878 10 6.5S8.88 4 7.5 4a2.5 2.5 0 1 0 0 5zm0-3a.5.5 0 1 1 0 1 .5.5 0 1 1 0-1zm7 3C15.88 9 17 7.878 17 6.5S15.88 4 14.5 4a2.5 2.5 0 1 0 0 5zm0-3a.5.5 0 1 1 0 1 .5.5 0 1 1 0-1zm7 3C22.88 9 24 7.878 24 6.5S22.88 4 21.5 4a2.5 2.5 0 1 0 0 5zm0-3a.5.5 0 1 1 0 1 .5.5 0 1 1 0-1zm7 3C29.88 9 31 7.878 31 6.5S29.88 4 28.5 4a2.5 2.5 0 1 0 0 5zm0-3a.5.5 0 1 1 0 1 .5.5 0 1 1 0-1zm7 3C36.88 9 38 7.878 38 6.5S36.88 4 35.5 4a2.5 2.5 0 1 0 0 5zm0-3a.5.5 0 1 1 0 1 .5.5 0 1 1 0-1zm7 3C43.88 9 45 7.878 45 6.5S43.88 4 42.5 4a2.5 2.5 0 1 0 0 5zm0-3a.5.5 0 1 1 0 1 .5.5 0 1 1 0-1zm7 3C50.88 9 52 7.878 52 6.5S50.88 4 49.5 4a2.5 2.5 0 1 0 0 5zm0-3a.5.5 0 1 1 0 1 .5.5 0 1 1 0-1zm7 3C57.88 9 59 7.878 59 6.5S57.88 4 56.5 4a2.5 2.5 0 1 0 0 5zm0-3a.5.5 0 1 1 0 1 .5.5 0 1 1 0-1z"/><defs ><path id="B" d="M13 15h3a1 1 0 0 0 1-1v-3a1 1 0 0 0-1-1h-3a1 1 0 0 0-1 1v3a1 1 0 0 0 1 1zm1-3h1v1h-1z"/></defs></svg>
